<svg width="162" height="32" viewBox="0 0 162 32" fill="none" xmlns="http://www.w3.org/2000/svg">
<g clip-path="url(#clip0_12_600)">
<path d="M47.1016 13C47.1016 6.09635 41.5052 0.5 34.6016 0.5C27.6979 0.5 22.1016 6.09635 22.1016 13C22.1016 19.2396 26.6724 24.4104 32.6484 25.3479V16.6135H29.4745V13H32.6484V10.2458C32.6484 7.11354 34.5146 5.38281 37.3698 5.38281C38.7375 5.38281 40.1677 5.62708 40.1677 5.62708V8.70312H38.5917C37.0391 8.70312 36.5547 9.66667 36.5547 10.6552V13H40.0214L39.4672 16.6135H36.5547V25.3479C42.5307 24.4104 47.1016 19.2396 47.1016 13Z" fill="#1877F2"/>
<path d="M39.4654 16.6135L40.0195 13H36.5529V10.6552C36.5529 9.66667 37.0372 8.70312 38.5898 8.70312H40.1659V5.62708C40.1659 5.62708 38.7357 5.38281 37.368 5.38281C34.5128 5.38281 32.6466 7.11302 32.6466 10.2458V13H29.4727V16.6135H32.6466V25.3479C33.9408 25.5511 35.2587 25.5511 36.5529 25.3479V16.6135H39.4654Z" fill="white"/>
</g>
<g clip-path="url(#clip1_12_600)">
<path d="M81.1016 0.5C88.0052 0.5 93.6016 6.09635 93.6016 13C93.6016 19.9036 88.0052 25.5 81.1016 25.5C74.1979 25.5 68.6016 19.9036 68.6016 13C68.6016 6.09635 74.1979 0.5 81.1016 0.5Z" fill="#1DA1F2"/>
<path d="M78.8133 19.5938C84.357 19.5938 87.3883 15 87.3883 11.0188C87.3883 10.8875 87.3883 10.7563 87.382 10.6313C87.9724 10.2035 88.4824 9.67445 88.8883 9.06877C88.3377 9.31138 87.7543 9.47144 87.157 9.54377C87.7873 9.16754 88.2584 8.57413 88.482 7.87502C87.8903 8.22473 87.2437 8.47196 86.5695 8.60627C86.2878 8.30519 85.9471 8.06543 85.5685 7.90198C85.19 7.73852 84.7818 7.65488 84.3695 7.65627C83.5707 7.65668 82.8047 7.9742 82.2398 8.53907C81.675 9.10393 81.3574 9.86993 81.357 10.6688C81.357 10.9063 81.382 11.1375 81.4383 11.3563C78.932 11.2313 76.7133 10.0313 75.2258 8.20627C74.9599 8.666 74.8198 9.18767 74.8195 9.71877C74.8187 10.2151 74.9411 10.7038 75.1756 11.1412C75.4101 11.5786 75.7495 11.951 76.1633 12.225C75.6855 12.2118 75.218 12.0832 74.8008 11.85V11.8875C74.801 12.5837 75.042 13.2583 75.4828 13.7971C75.9236 14.3359 76.5372 14.7057 77.2195 14.8438C76.9695 14.9125 76.7008 14.95 76.4258 14.95C76.232 14.95 76.0445 14.9313 75.857 14.8938C76.0483 15.4929 76.4224 16.017 76.9269 16.3926C77.4313 16.7681 78.0407 16.9762 78.6695 16.9875C77.601 17.8238 76.2827 18.2772 74.9258 18.275C74.682 18.275 74.4445 18.2625 74.207 18.2313C75.577 19.1243 77.1779 19.5978 78.8133 19.5938Z" fill="white"/>
</g>
<g clip-path="url(#clip2_12_600)">
<path d="M127.602 0.5C134.505 0.5 140.102 6.09687 140.102 13C140.102 19.9031 134.505 25.5 127.602 25.5C120.698 25.5 115.102 19.9031 115.102 13C115.102 6.09687 120.698 0.5 127.602 0.5Z" fill="#E1306C"/>
<path d="M127.854 5.96875C125.874 5.96875 125.628 5.97708 124.851 6.0125C124.076 6.04792 123.546 6.17083 123.083 6.35104C122.604 6.5375 122.197 6.78646 121.793 7.19167C121.423 7.55526 121.136 7.99535 120.953 8.48125C120.772 8.94479 120.649 9.47396 120.614 10.249C120.579 11.026 120.57 11.274 120.57 13.2521C120.57 15.2302 120.579 15.4781 120.614 16.2542C120.649 17.0302 120.772 17.5594 120.953 18.0229C121.139 18.5021 121.388 18.9083 121.793 19.3125C122.197 19.7177 122.604 19.9667 123.083 20.1521C123.546 20.3323 124.076 20.4552 124.851 20.4906C125.628 20.526 125.876 20.5344 127.854 20.5344C129.832 20.5344 130.08 20.526 130.856 20.4906C131.632 20.4552 132.161 20.3323 132.624 20.1521C133.11 19.9692 133.55 19.6827 133.914 19.3125C134.319 18.9073 134.568 18.501 134.754 18.0229C134.934 17.5594 135.057 17.0302 135.092 16.2542C135.128 15.4781 135.136 15.2302 135.136 13.2521C135.136 11.2729 135.128 11.026 135.092 10.249C135.057 9.47396 134.934 8.94479 134.754 8.48125C134.571 7.99548 134.284 7.5554 133.914 7.19167C133.55 6.82103 133.11 6.53416 132.624 6.35104C132.161 6.17083 131.632 6.04792 130.856 6.0125C130.08 5.97708 129.832 5.96875 127.854 5.96875ZM127.854 7.28125C129.798 7.28125 130.029 7.28854 130.796 7.32292C131.507 7.35625 131.892 7.475 132.148 7.57396C132.489 7.70625 132.732 7.86458 132.986 8.11875C133.241 8.37396 133.398 8.61667 133.531 8.95625C133.631 9.21354 133.749 9.59896 133.782 10.3083C133.817 11.0771 133.823 11.3073 133.823 13.2521C133.823 15.1969 133.817 15.4271 133.782 16.1948C133.749 16.9052 133.631 17.2906 133.532 17.5469C133.398 17.8875 133.24 18.1302 132.986 18.3844C132.751 18.6262 132.465 18.8124 132.148 18.9292C131.892 19.0292 131.507 19.1479 130.796 19.1792C130.029 19.2156 129.798 19.2229 127.854 19.2229C125.909 19.2229 125.679 19.2156 124.911 19.1802C124.201 19.1479 123.815 19.0292 123.558 18.9302C123.241 18.8131 122.955 18.6266 122.72 18.3844C122.478 18.1494 122.292 17.8632 122.176 17.5469C122.077 17.2906 121.957 16.9052 121.926 16.1948C121.89 15.4271 121.883 15.1969 121.883 13.2521C121.883 11.3073 121.89 11.0771 121.924 10.3083C121.958 9.59896 122.077 9.21354 122.176 8.95625C122.308 8.61667 122.466 8.37292 122.72 8.11875C122.976 7.86458 123.218 7.70625 123.558 7.57396C123.815 7.475 124.201 7.35521 124.911 7.32396C125.679 7.28854 125.909 7.28125 127.854 7.28125Z" fill="white"/>
<path d="M127.853 15.6793C127.209 15.6793 126.592 15.4236 126.137 14.9684C125.681 14.5132 125.426 13.8959 125.426 13.2522C125.426 12.6085 125.681 11.9911 126.137 11.536C126.592 11.0808 127.209 10.8251 127.853 10.8251C128.497 10.8251 129.114 11.0808 129.569 11.536C130.024 11.9911 130.28 12.6085 130.28 13.2522C130.28 13.8959 130.024 14.5132 129.569 14.9684C129.114 15.4236 128.497 15.6793 127.853 15.6793ZM127.853 9.5126C127.362 9.5126 126.875 9.60932 126.422 9.79726C125.968 9.98519 125.556 10.2606 125.209 10.6079C124.861 10.9551 124.586 11.3674 124.398 11.8211C124.21 12.2748 124.113 12.7611 124.113 13.2522C124.113 13.7433 124.21 14.2295 124.398 14.6833C124.586 15.137 124.861 15.5492 125.209 15.8965C125.556 16.2437 125.968 16.5192 126.422 16.7071C126.875 16.895 127.362 16.9918 127.853 16.9918C128.845 16.9918 129.796 16.5978 130.497 15.8965C131.198 15.1952 131.592 14.244 131.592 13.2522C131.592 12.2604 131.198 11.3092 130.497 10.6079C129.796 9.90659 128.845 9.5126 127.853 9.5126ZM132.614 9.36468C132.614 9.59647 132.522 9.81876 132.358 9.98266C132.194 10.1466 131.972 10.2386 131.74 10.2386C131.509 10.2386 131.286 10.1466 131.122 9.98266C130.958 9.81876 130.866 9.59647 130.866 9.36468C130.866 9.13289 130.958 8.9106 131.122 8.7467C131.286 8.5828 131.509 8.49072 131.74 8.49072C131.972 8.49072 132.194 8.5828 132.358 8.7467C132.522 8.9106 132.614 9.13289 132.614 9.36468Z" fill="white"/>
</g>
<defs>
<clipPath id="clip0_12_600">
<rect width="25" height="25" fill="white" transform="translate(22.1016 0.5)"/>
</clipPath>
<clipPath id="clip1_12_600">
<rect width="25" height="25" fill="white" transform="translate(68.6016 0.5)"/>
</clipPath>
<clipPath id="clip2_12_600">
<rect width="25" height="25" fill="white" transform="translate(115.102 0.5)"/>
</clipPath>
</defs>
</svg>
